<?xml version="1.0" encoding="utf-8" standalone="no"?>
<!DOCTYPE svg PUBLIC "-//W3C//DTD SVG 1.1//EN"
  "http://www.w3.org/Graphics/SVG/1.1/DTD/svg11.dtd">
<svg xmlns:xlink="http://www.w3.org/1999/xlink" width="735.5pt" height="450.38pt" viewBox="0 0 735.5 450.38" xmlns="http://www.w3.org/2000/svg" version="1.1">
 <metadata>
  <rdf:RDF xmlns:dc="http://purl.org/dc/elements/1.1/" xmlns:cc="http://creativecommons.org/ns#" xmlns:rdf="http://www.w3.org/1999/02/22-rdf-syntax-ns#">
   <cc:Work>
    <dc:type rdf:resource="http://purl.org/dc/dcmitype/StillImage"/>
    <dc:date>2026-09-10T10:42:40.716686</dc:date>
    <dc:format>image/svg+xml</dc:format>
    <dc:creator>
     <cc:Agent>
      <dc:title>Matplotlib v3.11.1, https://matplotlib.org/</dc:title>
     </cc:Agent>
    </dc:creator>
   </cc:Work>
  </rdf:RDF>
 </metadata>
 <defs>
  <style type="text/css">*{stroke-linejoin: round; stroke-linecap: butt}</style>
 </defs>
 <g id="figure_1">
  <g id="patch_1">
   <path d="M 0 450.38 
L 735.5 450.38 
L 735.5 0 
L 0 0 
L 0 450.38 
z
" style="fill: none"/>
  </g>
  <g id="axes_1">
   <g id="patch_2">
    <path d="M 58.7 395.28 
L 728.3 395.28 
L 728.3 7.2 
L 58.7 7.2 
L 58.7 395.28 
z
" style="fill: none"/>
   </g>
   <g id="matplotlib.axis_1">
    <g id="xtick_1">
     <g id="line2d_1">
      <defs>
       <path id="mf01705beb9" d="M 0 0 
L 0 3.5 
" style="stroke: #808080; stroke-width: 0.8"/>
      </defs>
      <g>
       <use xlink:href="#mf01705beb9" x="164.558185" y="395.28" style="fill: #808080; stroke: #808080; stroke-width: 0.8"/>
      </g>
     </g>
     <g id="text_1">
      <!-- 1.6 -->
      <g style="fill: #808080" transform="translate(153.308185 415.78) scale(0.18 -0.18)">
       <defs>
        <path id="STIXGeneral-Regular-14" d="M 2522 0 
L 755 0 
L 755 96 
Q 1107 115 1235 227 
Q 1363 339 1363 608 
L 1363 3482 
Q 1363 3795 1171 3795 
Q 1082 3795 883 3718 
L 710 3654 
L 710 3744 
L 1856 4326 
L 1914 4307 
L 1914 486 
Q 1914 275 2042 185 
Q 2170 96 2522 96 
L 2522 0 
z
" transform="scale(0.015625)"/>
        <path id="STIXGeneral-Regular-11" d="M 1158 275 
Q 1158 134 1052 32 
Q 947 -70 800 -70 
Q 653 -70 550 32 
Q 448 134 448 281 
Q 448 429 553 534 
Q 659 640 806 640 
Q 947 640 1052 531 
Q 1158 422 1158 275 
z
" transform="scale(0.015625)"/>
        <path id="STIXGeneral-Regular-19" d="M 2854 4378 
L 2867 4275 
Q 2112 4154 1606 3664 
Q 1101 3174 973 2451 
Q 1344 2739 1786 2739 
Q 2349 2739 2672 2380 
Q 2995 2022 2995 1402 
Q 2995 774 2669 378 
Q 2291 -90 1651 -90 
Q 870 -90 518 557 
Q 218 1107 218 1786 
Q 218 2835 915 3552 
Q 1312 3962 1731 4131 
Q 2150 4301 2854 4378 
z
M 2419 1203 
Q 2419 2445 1555 2445 
Q 1235 2445 1024 2275 
Q 813 2106 813 1702 
Q 813 954 1046 522 
Q 1280 90 1722 90 
Q 2061 90 2240 394 
Q 2419 698 2419 1203 
z
" transform="scale(0.015625)"/>
       </defs>
       <use xlink:href="#STIXGeneral-Regular-14"/>
       <use xlink:href="#STIXGeneral-Regular-11" transform="translate(50 0)"/>
       <use xlink:href="#STIXGeneral-Regular-19" transform="translate(75 0)"/>
      </g>
     </g>
    </g>
    <g id="xtick_2">
     <g id="line2d_2">
      <g>
       <use xlink:href="#mf01705beb9" x="289.834144" y="395.28" style="fill: #808080; stroke: #808080; stroke-width: 0.8"/>
      </g>
     </g>
     <g id="text_2">
      <!-- 1.8 -->
      <g style="fill: #808080" transform="translate(278.584144 415.78) scale(0.18 -0.18)">
       <defs>
        <path id="STIXGeneral-Regular-1b" d="M 2848 992 
Q 2848 499 2505 204 
Q 2163 -90 1587 -90 
Q 1050 -90 704 204 
Q 358 499 358 954 
Q 358 1293 524 1533 
Q 691 1773 1190 2125 
Q 710 2522 553 2765 
Q 397 3008 397 3328 
Q 397 3782 745 4054 
Q 1094 4326 1638 4326 
Q 2106 4326 2410 4060 
Q 2714 3795 2714 3411 
Q 2714 3059 2531 2848 
Q 2349 2637 1856 2374 
Q 2432 1990 2640 1689 
Q 2848 1389 2848 992 
z
M 2272 3411 
Q 2272 3744 2086 3945 
Q 1901 4147 1574 4147 
Q 1248 4147 1059 3977 
Q 870 3808 870 3513 
Q 870 3219 1059 2979 
Q 1248 2739 1670 2490 
Q 1997 2682 2134 2896 
Q 2272 3110 2272 3411 
z
M 1734 1741 
L 1357 1997 
Q 1075 1766 960 1545 
Q 845 1325 845 1011 
Q 845 576 1065 333 
Q 1286 90 1658 90 
Q 1971 90 2166 285 
Q 2362 480 2362 794 
Q 2362 1082 2214 1299 
Q 2067 1517 1734 1741 
z
" transform="scale(0.015625)"/>
       </defs>
       <use xlink:href="#STIXGeneral-Regular-14"/>
       <use xlink:href="#STIXGeneral-Regular-11" transform="translate(50 0)"/>
       <use xlink:href="#STIXGeneral-Regular-1b" transform="translate(75 0)"/>
      </g>
     </g>
    </g>
    <g id="xtick_3">
     <g id="line2d_3">
      <g>
       <use xlink:href="#mf01705beb9" x="415.110103" y="395.28" style="fill: #808080; stroke: #808080; stroke-width: 0.8"/>
      </g>
     </g>
     <g id="text_3">
      <!-- 2.0 -->
      <g style="fill: #808080" transform="translate(403.860103 415.78) scale(0.18 -0.18)">
       <defs>
        <path id="STIXGeneral-Regular-15" d="M 3034 877 
L 2688 0 
L 186 0 
L 186 77 
L 1325 1286 
Q 1773 1754 1965 2144 
Q 2157 2534 2157 2950 
Q 2157 3379 1920 3616 
Q 1683 3853 1267 3853 
Q 922 3853 720 3673 
Q 518 3494 326 3021 
L 192 3053 
Q 301 3648 630 3987 
Q 960 4326 1523 4326 
Q 2054 4326 2380 4006 
Q 2707 3686 2707 3200 
Q 2707 2477 1888 1613 
L 832 486 
L 2330 486 
Q 2541 486 2665 569 
Q 2790 653 2944 915 
L 3034 877 
z
" transform="scale(0.015625)"/>
        <path id="STIXGeneral-Regular-13" d="M 3046 2112 
Q 3046 1683 2963 1302 
Q 2880 922 2717 602 
Q 2554 282 2266 96 
Q 1978 -90 1600 -90 
Q 1210 -90 915 108 
Q 621 307 461 640 
Q 301 973 227 1350 
Q 154 1728 154 2150 
Q 154 2746 301 3222 
Q 448 3699 790 4012 
Q 1133 4326 1626 4326 
Q 2253 4326 2649 3712 
Q 3046 3098 3046 2112 
z
M 2432 2080 
Q 2432 3091 2217 3625 
Q 2003 4160 1587 4160 
Q 1190 4160 979 3622 
Q 768 3085 768 2106 
Q 768 1120 979 598 
Q 1190 77 1600 77 
Q 2003 77 2217 598 
Q 2432 1120 2432 2080 
z
" transform="scale(0.015625)"/>
       </defs>
       <use xlink:href="#STIXGeneral-Regular-15"/>
       <use xlink:href="#STIXGeneral-Regular-11" transform="translate(50 0)"/>
       <use xlink:href="#STIXGeneral-Regular-13" transform="translate(75 0)"/>
      </g>
     </g>
    </g>
    <g id="xtick_4">
     <g id="line2d_4">
      <g>
       <use xlink:href="#mf01705beb9" x="540.386062" y="395.28" style="fill: #808080; stroke: #808080; stroke-width: 0.8"/>
      </g>
     </g>
     <g id="text_4">
      <!-- 2.2 -->
      <g style="fill: #808080" transform="translate(529.136062 415.78) scale(0.18 -0.18)">
       <use xlink:href="#STIXGeneral-Regular-15"/>
       <use xlink:href="#STIXGeneral-Regular-11" transform="translate(50 0)"/>
       <use xlink:href="#STIXGeneral-Regular-15" transform="translate(75 0)"/>
      </g>
     </g>
    </g>
    <g id="xtick_5">
     <g id="line2d_5">
      <g>
       <use xlink:href="#mf01705beb9" x="665.662021" y="395.28" style="fill: #808080; stroke: #808080; stroke-width: 0.8"/>
      </g>
     </g>
     <g id="text_5">
      <!-- 2.4 -->
      <g style="fill: #808080" transform="translate(654.412021 415.78) scale(0.18 -0.18)">
       <defs>
        <path id="STIXGeneral-Regular-17" d="M 3027 1069 
L 2368 1069 
L 2368 0 
L 1869 0 
L 1869 1069 
L 77 1069 
L 77 1478 
L 2086 4326 
L 2368 4326 
L 2368 1478 
L 3027 1478 
L 3027 1069 
z
M 1869 1478 
L 1869 3674 
L 333 1478 
L 1869 1478 
z
" transform="scale(0.015625)"/>
       </defs>
       <use xlink:href="#STIXGeneral-Regular-15"/>
       <use xlink:href="#STIXGeneral-Regular-11" transform="translate(50 0)"/>
       <use xlink:href="#STIXGeneral-Regular-17" transform="translate(75 0)"/>
      </g>
     </g>
    </g>
    <g id="text_6">
     <!-- $m_{pK^-}$ [GeV] -->
     <g style="fill: #808080" transform="translate(348.23 437.78) scale(0.18 -0.18)">
      <defs>
       <path id="STIXGeneral-Italic-50" d="M 4506 672 
L 4474 627 
Q 3981 -58 3552 -58 
Q 3296 -58 3296 237 
Q 3296 333 3379 659 
L 3750 2112 
Q 3795 2291 3795 2355 
Q 3795 2413 3756 2451 
Q 3718 2490 3667 2490 
Q 3366 2490 2829 1741 
Q 2592 1408 2457 1072 
Q 2323 736 2138 0 
L 1658 0 
L 1830 595 
Q 2266 2099 2266 2330 
Q 2266 2490 2125 2490 
Q 1965 2490 1702 2237 
Q 1440 1984 1171 1574 
Q 1011 1325 899 1043 
Q 787 762 557 0 
L 77 0 
L 352 922 
Q 704 2093 704 2381 
Q 704 2522 442 2522 
L 282 2522 
L 282 2624 
L 1318 2822 
L 1338 2810 
L 966 1472 
Q 1798 2822 2374 2822 
Q 2560 2822 2659 2720 
Q 2758 2618 2758 2438 
Q 2758 2195 2502 1466 
Q 2842 2003 3069 2275 
Q 3296 2547 3526 2694 
Q 3731 2822 3930 2822 
Q 4102 2822 4201 2710 
Q 4301 2598 4301 2419 
Q 4301 2336 4282 2240 
L 3846 634 
Q 3782 390 3782 346 
Q 3782 243 3859 243 
Q 4000 243 4275 582 
L 4410 749 
L 4506 672 
z
" transform="scale(0.015625)"/>
       <path id="STIXGeneral-Italic-53" d="M 1376 2739 
L 1190 2099 
Q 1670 2822 2285 2822 
Q 2637 2822 2829 2611 
Q 3021 2400 3021 2022 
Q 3021 1235 2422 582 
Q 1824 -70 1120 -70 
Q 890 -70 678 38 
Q 422 -1018 422 -1024 
Q 422 -1126 508 -1168 
Q 595 -1210 819 -1210 
L 819 -1312 
L -480 -1312 
L -480 -1210 
Q -275 -1203 -188 -1120 
Q -102 -1037 -45 -806 
L 691 1958 
Q 794 2330 794 2413 
Q 794 2586 512 2586 
L 371 2586 
L 358 2682 
L 1357 2822 
Q 1389 2822 1389 2797 
Q 1382 2765 1376 2739 
z
M 2445 2003 
Q 2445 2285 2352 2416 
Q 2259 2547 2048 2547 
Q 1798 2547 1548 2329 
Q 1299 2112 1184 1818 
Q 1043 1453 905 953 
Q 768 454 768 294 
Q 768 186 854 118 
Q 941 51 1075 51 
Q 1574 51 2003 659 
Q 2445 1274 2445 2003 
z
" transform="scale(0.015625)"/>
       <path id="STIXGeneral-Italic-2e" d="M 4621 4179 
L 4621 4077 
Q 4442 4077 4128 3840 
L 2221 2400 
L 3296 525 
Q 3443 269 3552 201 
Q 3661 134 3962 102 
L 3962 0 
L 2202 0 
L 2202 102 
L 2387 122 
Q 2682 147 2682 326 
Q 2682 365 2672 409 
Q 2662 454 2630 515 
Q 2598 576 2579 611 
Q 2560 646 2509 736 
Q 2458 826 2445 851 
L 1658 2227 
L 1242 710 
Q 1171 467 1171 384 
Q 1171 237 1264 182 
Q 1357 128 1626 102 
L 1626 0 
L 45 0 
L 45 102 
Q 320 134 403 211 
Q 486 288 563 557 
L 1357 3405 
Q 1446 3725 1446 3802 
Q 1446 3936 1337 4000 
Q 1229 4064 941 4077 
L 941 4179 
L 2669 4179 
L 2669 4077 
Q 2400 4058 2253 3958 
Q 2106 3859 2035 3603 
L 1696 2362 
L 2675 3059 
Q 3590 3706 3590 3936 
Q 3590 4032 3360 4058 
L 3206 4077 
L 3206 4179 
L 4621 4179 
z
" transform="scale(0.015625)"/>
       <path id="STIXGeneral-Regular-425" d="M 3974 1408 
L 410 1408 
L 410 1830 
L 3974 1830 
L 3974 1408 
z
" transform="scale(0.015625)"/>
       <path id="STIXGeneral-Regular-3" transform="scale(0.015625)"/>
       <path id="STIXGeneral-Regular-3e" d="M 1914 -998 
L 563 -998 
L 563 4237 
L 1914 4237 
L 1914 4077 
L 1382 4077 
Q 1216 4077 1133 4006 
Q 1050 3936 1050 3770 
L 1050 -493 
Q 1050 -838 1382 -838 
L 1914 -838 
L 1914 -998 
z
" transform="scale(0.015625)"/>
       <path id="STIXGeneral-Regular-2a" d="M 4538 2266 
L 4538 2150 
Q 4256 2125 4173 2035 
Q 4090 1946 4090 1638 
L 4090 358 
Q 3539 -90 2464 -90 
Q 1965 -90 1507 89 
Q 1050 269 736 595 
Q 205 1152 205 2093 
Q 205 3155 890 3776 
Q 1491 4326 2419 4326 
Q 2829 4326 3270 4179 
Q 3443 4115 3552 4115 
Q 3654 4115 3731 4176 
Q 3808 4237 3840 4326 
L 3981 4326 
L 4032 2976 
L 3885 2976 
Q 3680 3475 3430 3718 
Q 3059 4070 2496 4070 
Q 1856 4070 1427 3629 
Q 934 3136 934 2074 
Q 934 1190 1395 678 
Q 1856 166 2618 166 
Q 2982 166 3225 281 
Q 3469 397 3469 557 
L 3469 1562 
Q 3469 1933 3376 2025 
Q 3283 2118 2899 2150 
L 2899 2266 
L 4538 2266 
z
" transform="scale(0.015625)"/>
       <path id="STIXGeneral-Regular-48" d="M 2611 1050 
L 2714 1005 
Q 2330 -64 1376 -64 
Q 813 -64 486 329 
Q 160 723 160 1389 
Q 160 2074 525 2509 
Q 890 2944 1485 2944 
Q 2061 2944 2374 2502 
Q 2560 2246 2592 1773 
L 621 1773 
Q 646 1370 700 1158 
Q 755 947 915 730 
Q 1184 378 1626 378 
Q 1939 378 2153 531 
Q 2368 685 2611 1050 
z
M 634 1978 
L 1939 1978 
Q 1882 2381 1750 2547 
Q 1619 2714 1312 2714 
Q 1043 2714 864 2525 
Q 685 2336 634 1978 
z
" transform="scale(0.015625)"/>
       <path id="STIXGeneral-Regular-39" d="M 4461 4237 
L 4461 4115 
Q 4262 4109 4134 3990 
Q 4006 3872 3872 3533 
L 2451 -70 
L 2355 -70 
L 794 3411 
Q 589 3866 467 3987 
Q 346 4109 102 4115 
L 102 4237 
L 1798 4237 
L 1798 4115 
L 1619 4102 
Q 1331 4083 1331 3904 
Q 1331 3776 1581 3219 
L 2554 1030 
L 3494 3392 
Q 3616 3699 3616 3853 
Q 3616 3898 3606 3933 
Q 3597 3968 3584 3993 
Q 3571 4019 3536 4038 
Q 3501 4058 3481 4067 
Q 3462 4077 3411 4086 
Q 3360 4096 3337 4099 
Q 3315 4102 3248 4108 
Q 3181 4115 3155 4115 
L 3155 4237 
L 4461 4237 
z
" transform="scale(0.015625)"/>
       <path id="STIXGeneral-Regular-40" d="M 1568 -998 
L 218 -998 
L 218 -838 
L 781 -838 
Q 947 -838 1014 -768 
Q 1082 -698 1082 -544 
L 1082 3731 
Q 1082 4077 755 4077 
L 218 4077 
L 218 4237 
L 1568 4237 
L 1568 -998 
z
" transform="scale(0.015625)"/>
      </defs>
      <use xlink:href="#STIXGeneral-Italic-50" transform="translate(0 0.40625)"/>
      <use xlink:href="#STIXGeneral-Italic-53" transform="translate(72.199936 -14.59375) scale(0.7)"/>
      <use xlink:href="#STIXGeneral-Italic-2e" transform="translate(107.4799 -14.59375) scale(0.7)"/>
      <use xlink:href="#STIXGeneral-Regular-425" transform="translate(171.363495 14.31625) scale(0.49)"/>
      <use xlink:href="#STIXGeneral-Regular-3" transform="translate(222.378465 0.40625)"/>
      <use xlink:href="#STIXGeneral-Regular-3e" transform="translate(247.378435 0.40625)"/>
      <use xlink:href="#STIXGeneral-Regular-2a" transform="translate(280.678407 0.40625)"/>
      <use xlink:href="#STIXGeneral-Regular-48" transform="translate(352.878343 0.40625)"/>
      <use xlink:href="#STIXGeneral-Regular-39" transform="translate(397.278307 0.40625)"/>
      <use xlink:href="#STIXGeneral-Regular-40" transform="translate(469.478243 0.40625)"/>
     </g>
    </g>
   </g>
   <g id="matplotlib.axis_2">
    <g id="ytick_1">
     <g id="line2d_6">
      <defs>
       <path id="m278a017f5f" d="M 0 0 
L -3.5 0 
" style="stroke: #808080; stroke-width: 0.8"/>
      </defs>
      <g>
       <use xlink:href="#m278a017f5f" x="58.7" y="395.28" style="fill: #808080; stroke: #808080; stroke-width: 0.8"/>
      </g>
     </g>
     <g id="text_7">
      <!-- 0.0 -->
      <g style="fill: #808080" transform="translate(29.2 402.03) scale(0.18 -0.18)">
       <use xlink:href="#STIXGeneral-Regular-13"/>
       <use xlink:href="#STIXGeneral-Regular-11" transform="translate(50 0)"/>
       <use xlink:href="#STIXGeneral-Regular-13" transform="translate(75 0)"/>
      </g>
     </g>
    </g>
    <g id="ytick_2">
     <g id="line2d_7">
      <g>
       <use xlink:href="#m278a017f5f" x="58.7" y="342.756944" style="fill: #808080; stroke: #808080; stroke-width: 0.8"/>
      </g>
     </g>
     <g id="text_8">
      <!-- 0.5 -->
      <g style="fill: #808080" transform="translate(29.2 349.506944) scale(0.18 -0.18)">
       <defs>
        <path id="STIXGeneral-Regular-18" d="M 2803 4358 
L 2573 3814 
Q 2534 3731 2400 3731 
L 1158 3731 
L 902 3187 
Q 1606 3053 1920 2896 
Q 2234 2739 2502 2368 
Q 2726 2061 2726 1555 
Q 2726 1094 2576 780 
Q 2426 467 2099 224 
Q 1664 -90 1011 -90 
Q 646 -90 422 19 
Q 198 128 198 307 
Q 198 550 486 550 
Q 717 550 960 352 
Q 1210 147 1414 147 
Q 1747 147 2012 480 
Q 2278 813 2278 1229 
Q 2278 1843 1850 2189 
Q 1293 2637 486 2637 
Q 410 2637 410 2688 
L 416 2720 
L 1114 4237 
L 2438 4237 
Q 2547 4237 2608 4269 
Q 2669 4301 2746 4403 
L 2803 4358 
z
" transform="scale(0.015625)"/>
       </defs>
       <use xlink:href="#STIXGeneral-Regular-13"/>
       <use xlink:href="#STIXGeneral-Regular-11" transform="translate(50 0)"/>
       <use xlink:href="#STIXGeneral-Regular-18" transform="translate(75 0)"/>
      </g>
     </g>
    </g>
    <g id="ytick_3">
     <g id="line2d_8">
      <g>
       <use xlink:href="#m278a017f5f" x="58.7" y="290.233888" style="fill: #808080; stroke: #808080; stroke-width: 0.8"/>
      </g>
     </g>
     <g id="text_9">
      <!-- 1.0 -->
      <g style="fill: #808080" transform="translate(29.2 296.983888) scale(0.18 -0.18)">
       <use xlink:href="#STIXGeneral-Regular-14"/>
       <use xlink:href="#STIXGeneral-Regular-11" transform="translate(50 0)"/>
       <use xlink:href="#STIXGeneral-Regular-13" transform="translate(75 0)"/>
      </g>
     </g>
    </g>
    <g id="ytick_4">
     <g id="line2d_9">
      <g>
       <use xlink:href="#m278a017f5f" x="58.7" y="237.710833" style="fill: #808080; stroke: #808080; stroke-width: 0.8"/>
      </g>
     </g>
     <g id="text_10">
      <!-- 1.5 -->
      <g style="fill: #808080" transform="translate(29.2 244.460833) scale(0.18 -0.18)">
       <use xlink:href="#STIXGeneral-Regular-14"/>
       <use xlink:href="#STIXGeneral-Regular-11" transform="translate(50 0)"/>
       <use xlink:href="#STIXGeneral-Regular-18" transform="translate(75 0)"/>
      </g>
     </g>
    </g>
    <g id="ytick_5">
     <g id="line2d_10">
      <g>
       <use xlink:href="#m278a017f5f" x="58.7" y="185.187777" style="fill: #808080; stroke: #808080; stroke-width: 0.8"/>
      </g>
     </g>
     <g id="text_11">
      <!-- 2.0 -->
      <g style="fill: #808080" transform="translate(29.2 191.937777) scale(0.18 -0.18)">
       <use xlink:href="#STIXGeneral-Regular-15"/>
       <use xlink:href="#STIXGeneral-Regular-11" transform="translate(50 0)"/>
       <use xlink:href="#STIXGeneral-Regular-13" transform="translate(75 0)"/>
      </g>
     </g>
    </g>
    <g id="ytick_6">
     <g id="line2d_11">
      <g>
       <use xlink:href="#m278a017f5f" x="58.7" y="132.664721" style="fill: #808080; stroke: #808080; stroke-width: 0.8"/>
      </g>
     </g>
     <g id="text_12">
      <!-- 2.5 -->
      <g style="fill: #808080" transform="translate(29.2 139.414721) scale(0.18 -0.18)">
       <use xlink:href="#STIXGeneral-Regular-15"/>
       <use xlink:href="#STIXGeneral-Regular-11" transform="translate(50 0)"/>
       <use xlink:href="#STIXGeneral-Regular-18" transform="translate(75 0)"/>
      </g>
     </g>
    </g>
    <g id="ytick_7">
     <g id="line2d_12">
      <g>
       <use xlink:href="#m278a017f5f" x="58.7" y="80.141665" style="fill: #808080; stroke: #808080; stroke-width: 0.8"/>
      </g>
     </g>
     <g id="text_13">
      <!-- 3.0 -->
      <g style="fill: #808080" transform="translate(29.2 86.891665) scale(0.18 -0.18)">
       <defs>
        <path id="STIXGeneral-Regular-16" d="M 390 3264 
L 288 3290 
Q 435 3770 748 4048 
Q 1062 4326 1542 4326 
Q 1990 4326 2265 4083 
Q 2541 3840 2541 3450 
Q 2541 2925 1946 2566 
Q 2298 2413 2477 2227 
Q 2758 1914 2758 1402 
Q 2758 890 2464 506 
Q 2246 211 1840 60 
Q 1434 -90 979 -90 
Q 262 -90 262 275 
Q 262 378 339 442 
Q 416 506 525 506 
Q 685 506 915 339 
Q 1197 141 1466 141 
Q 1818 141 2058 425 
Q 2298 710 2298 1120 
Q 2298 1856 1632 2048 
Q 1434 2112 979 2112 
L 979 2202 
Q 1338 2323 1517 2432 
Q 2035 2726 2035 3290 
Q 2035 3610 1852 3776 
Q 1670 3942 1344 3942 
Q 768 3942 390 3264 
z
" transform="scale(0.015625)"/>
       </defs>
       <use xlink:href="#STIXGeneral-Regular-16"/>
       <use xlink:href="#STIXGeneral-Regular-11" transform="translate(50 0)"/>
       <use xlink:href="#STIXGeneral-Regular-13" transform="translate(75 0)"/>
      </g>
     </g>
    </g>
    <g id="ytick_8">
     <g id="line2d_13">
      <g>
       <use xlink:href="#m278a017f5f" x="58.7" y="27.61861" style="fill: #808080; stroke: #808080; stroke-width: 0.8"/>
      </g>
     </g>
     <g id="text_14">
      <!-- 3.5 -->
      <g style="fill: #808080" transform="translate(29.2 34.36861) scale(0.18 -0.18)">
       <use xlink:href="#STIXGeneral-Regular-16"/>
       <use xlink:href="#STIXGeneral-Regular-11" transform="translate(50 0)"/>
       <use xlink:href="#STIXGeneral-Regular-18" transform="translate(75 0)"/>
      </g>
     </g>
    </g>
    <g id="text_15">
     <!-- Normalized intensity (a.u.) -->
     <g style="fill: #808080" transform="translate(20.7 298.288125) rotate(-90) scale(0.18 -0.18)">
      <defs>
       <path id="STIXGeneral-Regular-31" d="M 4525 4237 
L 4525 4115 
Q 4198 4083 4102 4000 
Q 4000 3910 3958 3756 
Q 3917 3603 3917 3245 
L 3917 -70 
L 3802 -70 
L 979 3443 
L 979 960 
Q 979 474 1088 323 
Q 1197 173 1574 122 
L 1574 0 
L 77 0 
L 77 122 
Q 474 166 586 310 
Q 698 454 698 960 
L 698 3776 
Q 531 3981 416 4048 
Q 301 4115 77 4115 
L 77 4237 
L 1165 4237 
L 3635 1146 
L 3635 3322 
Q 3635 3808 3514 3949 
Q 3437 4032 3344 4061 
Q 3251 4090 3008 4115 
L 3008 4237 
L 4525 4237 
z
" transform="scale(0.015625)"/>
       <path id="STIXGeneral-Regular-52" d="M 3008 1478 
Q 3008 806 2608 371 
Q 2208 -64 1568 -64 
Q 979 -64 582 368 
Q 186 800 186 1459 
Q 186 2125 582 2534 
Q 979 2944 1626 2944 
Q 2221 2944 2614 2537 
Q 3008 2131 3008 1478 
z
M 2432 1306 
Q 2432 2035 2112 2445 
Q 1856 2765 1504 2765 
Q 1171 2765 966 2493 
Q 762 2221 762 1747 
Q 762 928 1101 435 
Q 1318 115 1677 115 
Q 2029 115 2230 432 
Q 2432 749 2432 1306 
z
" transform="scale(0.015625)"/>
       <path id="STIXGeneral-Regular-55" d="M 1024 2931 
L 1024 2342 
Q 1267 2688 1430 2816 
Q 1594 2944 1792 2944 
Q 1958 2944 2051 2854 
Q 2144 2765 2144 2605 
Q 2144 2470 2077 2393 
Q 2010 2317 1894 2317 
Q 1773 2317 1638 2445 
Q 1536 2541 1472 2541 
Q 1338 2541 1181 2355 
Q 1024 2170 1024 2016 
L 1024 576 
Q 1024 301 1133 205 
Q 1242 109 1568 96 
L 1568 0 
L 32 0 
L 32 96 
Q 339 154 412 224 
Q 486 294 486 538 
L 486 2138 
Q 486 2349 438 2435 
Q 390 2522 269 2522 
Q 166 2522 45 2496 
L 45 2598 
Q 448 2726 992 2944 
L 1024 2931 
z
" transform="scale(0.015625)"/>
       <path id="STIXGeneral-Regular-50" d="M 4960 0 
L 3565 0 
L 3565 96 
Q 3834 122 3907 208 
Q 3981 294 3981 576 
L 3981 1894 
Q 3981 2278 3869 2444 
Q 3757 2611 3488 2611 
Q 3264 2611 3107 2521 
Q 2950 2432 2803 2221 
L 2803 608 
Q 2803 301 2896 201 
Q 2989 102 3264 96 
L 3264 0 
L 1830 0 
L 1830 96 
Q 2112 115 2189 188 
Q 2266 262 2266 550 
L 2266 1901 
Q 2266 2611 1850 2611 
Q 1670 2611 1468 2531 
Q 1267 2451 1171 2336 
Q 1088 2240 1088 2227 
L 1088 448 
Q 1088 243 1177 176 
Q 1267 109 1523 96 
L 1523 0 
L 102 0 
L 102 96 
Q 371 102 460 195 
Q 550 288 550 563 
L 550 2150 
Q 550 2387 499 2480 
Q 448 2573 326 2573 
Q 230 2573 122 2547 
L 122 2656 
Q 557 2778 1011 2944 
L 1062 2925 
L 1062 2451 
L 1075 2451 
Q 1363 2752 1584 2848 
Q 1805 2944 2054 2944 
Q 2560 2944 2733 2406 
Q 3232 2944 3776 2944 
Q 4518 2944 4518 1792 
L 4518 493 
Q 4518 282 4582 202 
Q 4646 122 4794 109 
L 4960 96 
L 4960 0 
z
" transform="scale(0.015625)"/>
       <path id="STIXGeneral-Regular-44" d="M 2829 422 
L 2829 243 
Q 2586 -64 2253 -64 
Q 1888 -64 1843 403 
L 1837 403 
Q 1427 -64 909 -64 
Q 608 -64 422 112 
Q 237 288 237 602 
Q 237 1050 685 1350 
Q 992 1555 1837 1869 
L 1837 2214 
Q 1837 2502 1699 2646 
Q 1562 2790 1338 2790 
Q 1146 2790 1018 2697 
Q 890 2605 890 2477 
Q 890 2419 909 2348 
Q 928 2278 928 2208 
Q 928 2112 841 2029 
Q 755 1946 634 1946 
Q 525 1946 441 2029 
Q 358 2112 358 2240 
Q 358 2547 685 2752 
Q 986 2944 1421 2944 
Q 1939 2944 2176 2656 
Q 2291 2522 2323 2384 
Q 2355 2246 2355 1946 
L 2355 723 
Q 2355 301 2554 301 
Q 2682 301 2829 422 
z
M 1837 813 
L 1837 1715 
Q 1248 1510 1018 1293 
Q 800 1094 800 800 
Q 800 557 921 432 
Q 1043 307 1242 307 
Q 1453 307 1613 410 
Q 1747 506 1792 589 
Q 1837 672 1837 813 
z
" transform="scale(0.015625)"/>
       <path id="STIXGeneral-Regular-4f" d="M 1645 0 
L 134 0 
L 134 96 
Q 435 122 531 221 
Q 627 320 627 589 
L 627 3590 
Q 627 3821 569 3910 
Q 512 4000 358 4000 
Q 224 4000 122 3987 
L 122 4090 
Q 730 4237 1133 4371 
L 1165 4346 
L 1165 557 
Q 1165 288 1254 201 
Q 1344 115 1645 96 
L 1645 0 
z
" transform="scale(0.015625)"/>
       <path id="STIXGeneral-Regular-4c" d="M 1152 4045 
Q 1152 3904 1056 3811 
Q 960 3718 819 3718 
Q 685 3718 592 3811 
Q 499 3904 499 4045 
Q 499 4179 595 4275 
Q 691 4371 826 4371 
Q 966 4371 1059 4275 
Q 1152 4179 1152 4045 
z
M 1619 0 
L 102 0 
L 102 96 
Q 435 115 521 211 
Q 608 307 608 666 
L 608 2118 
Q 608 2342 563 2432 
Q 518 2522 397 2522 
Q 243 2522 128 2490 
L 128 2592 
L 1120 2944 
L 1146 2918 
L 1146 672 
Q 1146 314 1226 218 
Q 1306 122 1619 96 
L 1619 0 
z
" transform="scale(0.015625)"/>
       <path id="STIXGeneral-Regular-5d" d="M 2675 870 
L 2579 0 
L 173 0 
L 173 96 
L 1875 2688 
L 1011 2688 
Q 710 2688 604 2582 
Q 499 2477 454 2125 
L 339 2125 
L 365 2880 
L 2579 2880 
L 2579 2784 
L 858 192 
L 1709 192 
Q 2246 192 2387 365 
Q 2477 474 2560 896 
L 2675 870 
z
" transform="scale(0.015625)"/>
       <path id="STIXGeneral-Regular-47" d="M 3142 269 
L 2202 -64 
L 2176 -45 
L 2176 365 
Q 1869 -64 1357 -64 
Q 826 -64 499 317 
Q 173 698 173 1312 
Q 173 1990 563 2467 
Q 954 2944 1504 2944 
Q 1850 2944 2176 2669 
L 2176 3667 
Q 2176 3866 2118 3930 
Q 2061 3994 1882 3994 
Q 1792 3994 1741 3987 
L 1741 4090 
Q 2323 4243 2682 4371 
L 2714 4358 
L 2714 730 
Q 2714 506 2768 435 
Q 2822 365 2995 365 
Q 3034 365 3142 371 
L 3142 269 
z
M 2176 653 
L 2176 2125 
Q 2176 2381 1981 2573 
Q 1786 2765 1523 2765 
Q 1158 2765 940 2438 
Q 723 2112 723 1568 
Q 723 979 963 624 
Q 1203 269 1606 269 
Q 1907 269 2080 474 
Q 2176 582 2176 653 
z
" transform="scale(0.015625)"/>
       <path id="STIXGeneral-Regular-51" d="M 3104 0 
L 1773 0 
L 1779 96 
Q 2016 115 2096 233 
Q 2176 352 2176 672 
L 2176 1946 
Q 2176 2592 1709 2592 
Q 1549 2592 1408 2515 
Q 1267 2438 1050 2227 
L 1050 461 
Q 1050 269 1136 192 
Q 1222 115 1466 96 
L 1466 0 
L 115 0 
L 115 96 
Q 358 115 435 214 
Q 512 314 512 602 
L 512 2157 
Q 512 2394 467 2483 
Q 422 2573 288 2573 
Q 160 2573 102 2547 
L 102 2656 
Q 550 2784 979 2944 
L 1030 2925 
L 1030 2426 
L 1037 2426 
Q 1491 2944 1958 2944 
Q 2323 2944 2518 2688 
Q 2714 2432 2714 1958 
L 2714 544 
Q 2714 288 2790 205 
Q 2867 122 3104 96 
L 3104 0 
z
" transform="scale(0.015625)"/>
       <path id="STIXGeneral-Regular-57" d="M 1702 493 
L 1786 422 
Q 1478 -64 1011 -64 
Q 448 -64 448 749 
L 448 2675 
L 109 2675 
Q 83 2694 83 2720 
Q 83 2771 192 2842 
Q 435 2982 813 3526 
Q 826 3546 874 3606 
Q 922 3667 941 3706 
Q 986 3706 986 3622 
L 986 2880 
L 1632 2880 
L 1632 2675 
L 986 2675 
L 986 845 
Q 986 538 1062 403 
Q 1139 269 1318 269 
Q 1510 269 1702 493 
z
" transform="scale(0.015625)"/>
       <path id="STIXGeneral-Regular-56" d="M 998 1926 
L 1664 1523 
Q 1984 1331 2105 1164 
Q 2227 998 2227 736 
Q 2227 416 1961 176 
Q 1696 -64 1331 -64 
Q 1030 -64 864 -6 
Q 691 51 570 51 
Q 461 51 416 -26 
L 333 -26 
L 333 979 
L 435 979 
Q 538 512 730 294 
Q 922 77 1248 77 
Q 1485 77 1632 211 
Q 1779 346 1779 550 
Q 1779 845 1440 1030 
L 1094 1222 
Q 326 1651 326 2150 
Q 326 2522 566 2730 
Q 806 2938 1210 2938 
Q 1491 2938 1638 2867 
Q 1754 2816 1818 2816 
Q 1862 2816 1920 2880 
L 1990 2880 
L 2022 2010 
L 1926 2010 
Q 1818 2445 1654 2621 
Q 1491 2797 1203 2797 
Q 986 2797 854 2688 
Q 723 2579 723 2362 
Q 723 2253 796 2128 
Q 870 2003 998 1926 
z
" transform="scale(0.015625)"/>
       <path id="STIXGeneral-Regular-5c" d="M 3040 2880 
L 3040 2784 
Q 2925 2771 2854 2700 
Q 2784 2630 2720 2458 
L 1760 -160 
Q 1510 -838 1257 -1116 
Q 1005 -1395 640 -1395 
Q 435 -1395 313 -1289 
Q 192 -1184 192 -1024 
Q 192 -902 272 -816 
Q 352 -730 467 -730 
Q 653 -730 800 -813 
Q 883 -858 966 -858 
Q 1101 -858 1286 -576 
Q 1376 -448 1459 -211 
Q 1542 26 1542 115 
Q 1542 198 1274 762 
L 429 2566 
Q 346 2752 90 2790 
L 90 2880 
L 1402 2880 
L 1402 2784 
Q 1197 2778 1117 2739 
Q 1037 2701 1037 2611 
Q 1037 2541 1120 2349 
L 1837 749 
L 2458 2515 
Q 2483 2573 2483 2630 
Q 2483 2784 2189 2784 
L 2189 2880 
L 3040 2880 
z
" transform="scale(0.015625)"/>
       <path id="STIXGeneral-Regular-b" d="M 1946 -1030 
L 1869 -1133 
Q 1126 -710 716 32 
Q 307 774 307 1613 
Q 307 3386 1888 4326 
L 1946 4224 
Q 1293 3667 1075 3126 
Q 858 2586 858 1632 
Q 858 685 1082 96 
Q 1306 -493 1946 -1030 
z
" transform="scale(0.015625)"/>
       <path id="STIXGeneral-Regular-58" d="M 3072 320 
L 3072 230 
Q 2573 96 2195 -58 
L 2163 -38 
L 2163 486 
L 2150 486 
Q 1747 -64 1235 -64 
Q 870 -64 662 160 
Q 454 384 454 755 
L 454 2362 
Q 454 2598 371 2688 
Q 288 2778 58 2790 
L 58 2880 
L 992 2880 
L 992 813 
Q 992 595 1123 451 
Q 1254 307 1446 307 
Q 1760 307 1984 506 
Q 2067 582 2099 649 
Q 2131 717 2131 877 
L 2131 2355 
Q 2131 2605 2041 2678 
Q 1952 2752 1658 2771 
L 1658 2880 
L 2669 2880 
L 2669 685 
Q 2669 461 2742 390 
Q 2816 320 3034 320 
L 3072 320 
z
" transform="scale(0.015625)"/>
       <path id="STIXGeneral-Regular-c" d="M 186 4224 
L 262 4326 
Q 992 3891 1408 3148 
Q 1824 2406 1824 1581 
Q 1824 -166 243 -1133 
L 186 -1030 
Q 845 -486 1059 54 
Q 1274 595 1274 1562 
Q 1274 2534 1059 3120 
Q 845 3706 186 4224 
z
" transform="scale(0.015625)"/>
      </defs>
      <use xlink:href="#STIXGeneral-Regular-31"/>
      <use xlink:href="#STIXGeneral-Regular-52" transform="translate(70.90625 0)"/>
      <use xlink:href="#STIXGeneral-Regular-55" transform="translate(120.90625 0)"/>
      <use xlink:href="#STIXGeneral-Regular-50" transform="translate(156.203125 0)"/>
      <use xlink:href="#STIXGeneral-Regular-44" transform="translate(234 0)"/>
      <use xlink:href="#STIXGeneral-Regular-4f" transform="translate(278.40625 0)"/>
      <use xlink:href="#STIXGeneral-Regular-4c" transform="translate(306.203125 0)"/>
      <use xlink:href="#STIXGeneral-Regular-5d" transform="translate(334 0)"/>
      <use xlink:href="#STIXGeneral-Regular-48" transform="translate(378.40625 0)"/>
      <use xlink:href="#STIXGeneral-Regular-47" transform="translate(422.8125 0)"/>
      <use xlink:href="#STIXGeneral-Regular-3" transform="translate(472.8125 0)"/>
      <use xlink:href="#STIXGeneral-Regular-4c" transform="translate(497.8125 0)"/>
      <use xlink:href="#STIXGeneral-Regular-51" transform="translate(525.609375 0)"/>
      <use xlink:href="#STIXGeneral-Regular-57" transform="translate(575.609375 0)"/>
      <use xlink:href="#STIXGeneral-Regular-48" transform="translate(603.40625 0)"/>
      <use xlink:href="#STIXGeneral-Regular-51" transform="translate(647.8125 0)"/>
      <use xlink:href="#STIXGeneral-Regular-56" transform="translate(697.8125 0)"/>
      <use xlink:href="#STIXGeneral-Regular-4c" transform="translate(736.71875 0)"/>
      <use xlink:href="#STIXGeneral-Regular-57" transform="translate(764.515625 0)"/>
      <use xlink:href="#STIXGeneral-Regular-5c" transform="translate(792.3125 0)"/>
      <use xlink:href="#STIXGeneral-Regular-3" transform="translate(842.3125 0)"/>
      <use xlink:href="#STIXGeneral-Regular-b" transform="translate(867.3125 0)"/>
      <use xlink:href="#STIXGeneral-Regular-44" transform="translate(900.609375 0)"/>
      <use xlink:href="#STIXGeneral-Regular-11" transform="translate(945.015625 0)"/>
      <use xlink:href="#STIXGeneral-Regular-58" transform="translate(970.015625 0)"/>
      <use xlink:href="#STIXGeneral-Regular-11" transform="translate(1020.015625 0)"/>
      <use xlink:href="#STIXGeneral-Regular-c" transform="translate(1045.015625 0)"/>
     </g>
    </g>
   </g>
   <g id="line2d_14">
    <path d="M 60.769767 353.79181 
L 64.576367 343.626073 
L 68.366974 342.169073 
L 72.141788 344.971998 
L 75.901004 346.729851 
L 79.644814 347.559657 
L 83.373407 348.751591 
L 87.086966 348.621021 
L 90.785671 346.860836 
L 94.4697 343.516087 
L 98.139226 335.654084 
L 101.794418 319.485415 
L 105.435444 279.60591 
L 109.062467 177.82811 
L 112.675646 25.68 
L 116.275141 99.718627 
L 119.861104 201.611185 
L 123.433687 246.953261 
L 126.993039 266.206417 
L 130.539306 274.416448 
L 134.072631 279.849021 
L 137.593155 280.732061 
L 141.101016 280.82203 
L 144.596349 282.671063 
L 148.079289 282.511144 
L 151.549965 284.769171 
L 155.008506 285.104518 
L 158.455039 287.573107 
L 161.889688 288.295186 
L 168.723821 293.069268 
L 172.123543 293.239192 
L 175.511856 294.946703 
L 178.888876 296.07363 
L 182.254714 296.773535 
L 185.609481 296.848686 
L 188.953285 294.382566 
L 192.286233 292.990984 
L 195.60843 290.817018 
L 198.91998 288.388595 
L 202.220983 286.531203 
L 205.511541 286.753534 
L 208.791752 289.565908 
L 212.061713 290.517745 
L 215.321519 285.023101 
L 218.571264 276.482508 
L 221.811041 269.316682 
L 225.040942 264.852949 
L 228.261055 262.312462 
L 231.471469 261.150781 
L 237.863549 259.577163 
L 241.045385 260.028352 
L 244.217863 258.447223 
L 247.381065 256.397399 
L 250.535072 253.882905 
L 253.679964 250.927654 
L 256.81582 247.395942 
L 259.942716 245.488204 
L 263.060729 241.401829 
L 266.169935 236.945338 
L 269.270407 232.085928 
L 272.362219 228.78037 
L 275.445443 222.807486 
L 278.52015 216.438307 
L 281.586411 209.538612 
L 284.644294 204.708188 
L 287.693868 197.807065 
L 290.735201 191.832632 
L 293.768358 190.268396 
L 296.793405 188.469243 
L 299.810407 189.122003 
L 302.819429 194.515399 
L 305.820532 198.125891 
L 308.813779 202.604051 
L 311.799231 209.582751 
L 314.776949 213.478027 
L 317.746994 219.219497 
L 320.709423 221.728222 
L 323.664295 223.577523 
L 326.611667 227.417732 
L 329.551597 228.391246 
L 332.484141 231.768995 
L 335.409354 232.643319 
L 338.32729 233.73509 
L 341.238004 237.862018 
L 344.141548 239.838496 
L 347.037977 244.981745 
L 349.927341 247.987926 
L 352.809693 254.000153 
L 355.685083 257.751266 
L 358.553561 264.16449 
L 361.415177 268.181075 
L 364.269979 274.483405 
L 367.118017 278.328173 
L 369.959339 284.142186 
L 372.79399 287.524496 
L 375.622019 292.64258 
L 378.443471 295.411238 
L 381.258393 299.753369 
L 384.066829 301.84792 
L 386.868823 305.406088 
L 389.664421 306.810887 
L 392.453665 309.607777 
L 395.236598 312.015988 
L 398.013265 312.387983 
L 400.783705 314.087058 
L 403.547962 313.775046 
L 406.306076 314.792344 
L 409.058089 313.793448 
L 411.80404 314.158365 
L 414.543969 314.217612 
L 417.277916 312.230726 
L 420.00592 311.716102 
L 422.72802 309.10211 
L 425.444253 308.100886 
L 428.154657 306.924545 
L 430.85927 303.593343 
L 433.558129 302.158875 
L 436.25127 298.531786 
L 441.620544 295.677482 
L 444.296747 292.108358 
L 446.967376 291.069034 
L 449.632463 290.303409 
L 452.292045 287.434807 
L 454.946154 287.318031 
L 457.594825 285.020277 
L 460.23809 285.634822 
L 462.875984 286.600097 
L 465.508537 285.354097 
L 468.135783 286.958673 
L 470.757754 288.807073 
L 473.374481 288.407741 
L 478.592328 293.016594 
L 481.19351 293.134095 
L 486.380544 298.193928 
L 488.966456 298.546802 
L 494.123216 303.628965 
L 496.694122 306.053111 
L 499.260085 306.444698 
L 504.377292 311.027302 
L 506.928592 311.361991 
L 512.016725 315.54637 
L 514.553612 315.793911 
L 519.61316 319.57601 
L 522.135874 321.3823 
L 524.653917 321.497957 
L 529.676091 324.761338 
L 532.180273 324.788293 
L 537.174954 327.728055 
L 539.665502 329.109388 
L 542.151555 329.027136 
L 549.582982 332.798891 
L 552.051294 332.622666 
L 559.430063 335.886094 
L 561.881007 335.628537 
L 569.208221 338.501427 
L 571.642161 338.171503 
L 578.918886 340.658868 
L 581.336169 340.26265 
L 588.563435 342.422878 
L 590.964399 341.994224 
L 598.143201 343.864786 
L 600.528172 344.43874 
L 602.909195 343.934283 
L 610.028766 345.52035 
L 612.394188 345.062261 
L 621.81754 347.047798 
L 624.163887 346.615065 
L 633.511851 348.62387 
L 635.839576 348.253556 
L 645.113934 350.110981 
L 647.423474 349.75389 
L 652.031812 350.676803 
L 656.625937 351.493282 
L 658.917712 351.121562 
L 670.324339 353.01455 
L 672.595326 352.614618 
L 688.397612 354.832887 
L 706.25933 356.943917 
L 726.109913 358.891357 
L 728.3 359.076196 
L 728.3 359.076196 
" clip-path="url(#p47b160c592)" style="fill: none; stroke: #202020; stroke-width: 3; stroke-linecap: square"/>
   </g>
   <g id="line2d_15">
    <path d="M 60.769767 356.778657 
L 64.576367 348.524951 
L 68.366974 348.415914 
L 72.141788 352.191675 
L 75.901004 355.23764 
L 79.644814 357.799103 
L 83.373407 360.946864 
L 87.086966 363.565176 
L 94.4697 368.002067 
L 98.139226 369.903404 
L 101.794418 371.550513 
L 112.675646 375.761697 
L 116.275141 376.909257 
L 123.433687 378.847564 
L 134.072631 381.212415 
L 151.549965 384.145131 
L 175.511856 386.777997 
L 192.286233 388.113701 
L 218.571264 389.638975 
L 234.672272 390.33926 
L 253.679964 391.018717 
L 326.611667 392.640483 
L 392.453665 393.429767 
L 433.558129 393.757321 
L 593.361335 394.47792 
L 728.3 394.772443 
L 728.3 394.772443 
" clip-path="url(#p47b160c592)" style="fill: none; stroke: #1f77b4; stroke-width: 1.5; stroke-linecap: square"/>
   </g>
   <g id="line2d_16">
    <path d="M 60.769767 395.279237 
L 72.141788 395.143457 
L 75.901004 394.973703 
L 79.644814 394.650974 
L 83.373407 394.100902 
L 87.086966 393.113494 
L 90.785671 391.302367 
L 94.4697 387.967044 
L 98.139226 381.252032 
L 101.794418 366.358803 
L 105.435444 328.806099 
L 109.062467 228.016699 
L 112.675646 75.188934 
L 116.275141 153.350612 
L 119.861104 262.035803 
L 123.433687 313.764453 
L 126.993039 339.065873 
L 130.539306 353.010811 
L 134.072631 361.91125 
L 137.593155 367.416969 
L 141.101016 371.52625 
L 144.596349 374.514974 
L 151.549965 378.516065 
L 158.455039 380.878084 
L 161.889688 381.819944 
L 168.723821 383.400433 
L 172.123543 383.849886 
L 175.511856 384.455645 
L 185.609481 385.78131 
L 188.953285 385.981998 
L 192.286233 386.331961 
L 215.321519 387.87802 
L 225.040942 388.406203 
L 234.672272 388.790341 
L 253.679964 389.495651 
L 259.942716 389.690678 
L 296.793405 390.666104 
L 369.959339 391.97988 
L 411.80404 392.488036 
L 441.620544 392.785341 
L 473.374481 393.046075 
L 522.135874 393.394748 
L 554.515229 393.562483 
L 626.506473 393.863516 
L 728.3 394.185791 
L 728.3 394.185791 
" clip-path="url(#p47b160c592)" style="fill: none; stroke: #ff7f0e; stroke-width: 1.5; stroke-linecap: square"/>
   </g>
   <g id="line2d_17">
    <path d="M 60.769767 395.203791 
L 64.576367 394.882569 
L 68.366974 394.363331 
L 72.141788 393.703802 
L 75.901004 392.822467 
L 79.644814 391.674915 
L 83.373407 390.344096 
L 87.086966 388.700982 
L 90.785671 386.690811 
L 94.4697 384.378749 
L 98.139226 381.625735 
L 101.794418 378.378933 
L 105.435444 374.59373 
L 109.062467 370.485981 
L 112.675646 365.88846 
L 116.275141 360.852566 
L 123.433687 349.936304 
L 126.993039 344.431578 
L 130.539306 339.218179 
L 134.072631 335.04621 
L 137.593155 331.171646 
L 141.101016 328.742749 
L 144.596349 327.31251 
L 148.079289 326.319538 
L 151.549965 327.224496 
L 155.008506 327.816156 
L 158.455039 329.465478 
L 161.889688 331.502692 
L 165.312576 333.78887 
L 168.723821 336.620341 
L 172.123543 338.678361 
L 175.511856 341.494679 
L 178.888876 343.861339 
L 185.609481 348.91644 
L 188.953285 350.639459 
L 192.286233 352.822806 
L 195.60843 354.597659 
L 198.91998 356.502805 
L 202.220983 358.272631 
L 208.791752 361.23212 
L 212.061713 362.660049 
L 218.571264 365.040385 
L 225.040942 367.278677 
L 231.471469 369.075788 
L 237.863549 370.795409 
L 244.217863 372.308923 
L 253.679964 374.26006 
L 256.81582 374.723842 
L 259.942716 375.384306 
L 272.362219 377.393581 
L 278.52015 378.113069 
L 296.793405 380.301223 
L 317.746994 382.196703 
L 347.037977 384.21541 
L 395.236598 386.533944 
L 411.80404 387.115235 
L 428.154657 387.652308 
L 446.967376 388.170104 
L 468.135783 388.717599 
L 486.380544 389.123276 
L 499.260085 389.393738 
L 529.676091 389.964057 
L 544.633137 390.18746 
L 554.515229 390.354538 
L 598.143201 390.959431 
L 645.113934 391.48735 
L 663.490764 391.662669 
L 677.127087 391.795639 
L 728.3 392.273726 
L 728.3 392.273726 
" clip-path="url(#p47b160c592)" style="fill: none; stroke: #2ca02c; stroke-width: 1.5; stroke-linecap: square"/>
   </g>
   <g id="line2d_18">
    <path d="M 60.769767 395.266972 
L 137.593155 394.956565 
L 155.008506 394.680439 
L 165.312576 394.350413 
L 172.123543 393.977519 
L 178.888876 393.375588 
L 182.254714 392.929694 
L 185.609481 392.322334 
L 188.953285 391.422264 
L 192.286233 390.181867 
L 195.60843 388.298615 
L 198.91998 385.502449 
L 202.220983 381.334185 
L 205.511541 375.642949 
L 208.791752 370.49913 
L 212.061713 369.820682 
L 215.321519 374.0713 
L 218.571264 379.701566 
L 221.811041 384.158906 
L 225.040942 387.221934 
L 228.261055 389.238583 
L 231.471469 390.642692 
L 234.672272 391.623787 
L 237.863549 392.32938 
L 241.045385 392.850789 
L 247.381065 393.551066 
L 253.679964 393.985034 
L 263.060729 394.379678 
L 278.52015 394.72181 
L 302.819429 394.966929 
L 355.685083 395.145215 
L 465.508537 395.233173 
L 728.3 395.268516 
L 728.3 395.268516 
" clip-path="url(#p47b160c592)" style="fill: none; stroke: #d62728; stroke-width: 1.5; stroke-linecap: square"/>
   </g>
   <g id="line2d_19">
    <path d="M 60.769767 395.279976 
L 105.435444 395.165909 
L 123.433687 394.922252 
L 134.072631 394.622565 
L 144.596349 394.106998 
L 151.549965 393.568312 
L 158.455039 392.756592 
L 161.889688 392.219414 
L 165.312576 391.55871 
L 168.723821 390.772371 
L 172.123543 389.725432 
L 175.511856 388.498727 
L 178.888876 386.90769 
L 182.254714 384.960276 
L 185.609481 382.495829 
L 188.953285 379.164943 
L 192.286233 375.152682 
L 195.60843 369.949037 
L 198.91998 363.678584 
L 202.220983 356.202936 
L 208.791752 339.025842 
L 212.061713 331.779357 
L 215.321519 326.875547 
L 218.571264 325.986667 
L 221.811041 328.509954 
L 225.040942 333.380381 
L 228.261055 339.028481 
L 231.471469 345.180906 
L 234.672272 350.926037 
L 237.863549 356.02795 
L 241.045385 360.43891 
L 244.217863 364.20301 
L 247.381065 367.399379 
L 250.535072 370.113431 
L 253.679964 372.424302 
L 259.942716 376.099273 
L 263.060729 377.567834 
L 266.169935 378.844646 
L 272.362219 381.018397 
L 278.52015 382.58032 
L 284.644294 383.943241 
L 293.768358 385.496181 
L 302.819429 386.666033 
L 323.664295 388.455777 
L 332.484141 389.036833 
L 352.809693 390.003149 
L 384.066829 390.974013 
L 403.547962 391.407513 
L 428.154657 391.840866 
L 529.676091 392.888188 
L 566.770064 393.119316 
L 590.964399 393.253152 
L 677.127087 393.618288 
L 728.3 393.806708 
L 728.3 393.806708 
" clip-path="url(#p47b160c592)" style="fill: none; stroke: #9467bd; stroke-width: 1.5; stroke-linecap: square"/>
   </g>
   <g id="line2d_20">
    <path d="M 60.769767 394.717645 
L 68.366974 393.938162 
L 98.139226 391.876598 
L 116.275141 390.436847 
L 126.993039 389.398283 
L 144.596349 387.358143 
L 161.889688 384.63878 
L 168.723821 383.396909 
L 172.123543 382.583717 
L 175.511856 381.895121 
L 185.609481 379.444605 
L 188.953285 378.333214 
L 192.286233 377.372603 
L 202.220983 373.964411 
L 212.061713 369.841159 
L 225.040942 363.113576 
L 237.863549 354.84651 
L 244.217863 350.339366 
L 253.679964 343.288535 
L 256.81582 340.647847 
L 259.942716 338.67001 
L 266.169935 334.415708 
L 269.270407 332.517532 
L 272.362219 331.172195 
L 275.445443 329.363598 
L 278.52015 328.173298 
L 281.586411 327.275612 
L 287.693868 326.782859 
L 290.735201 326.830013 
L 296.793405 328.185648 
L 299.810407 329.094646 
L 302.819429 330.58136 
L 305.820532 331.59797 
L 308.813779 333.127312 
L 311.799231 335.107205 
L 314.776949 336.874097 
L 317.746994 339.006589 
L 323.664295 342.795969 
L 326.611667 344.962427 
L 329.551597 346.848819 
L 332.484141 348.941107 
L 347.037977 357.814003 
L 358.553561 363.742504 
L 369.959339 368.587347 
L 381.258393 372.508317 
L 395.236598 376.419922 
L 406.306076 378.863426 
L 420.00592 381.343528 
L 438.93873 383.9588 
L 446.967376 384.868501 
L 457.594825 385.930724 
L 468.135783 386.834692 
L 478.592328 387.609762 
L 514.553612 389.587114 
L 534.679886 390.403303 
L 556.974811 391.122164 
L 581.336169 391.727342 
L 612.394188 392.343719 
L 652.031812 392.926996 
L 706.25933 393.500904 
L 728.3 393.681442 
L 728.3 393.681442 
" clip-path="url(#p47b160c592)" style="fill: none; stroke: #8c564b; stroke-width: 1.5; stroke-linecap: square"/>
   </g>
   <g id="line2d_21">
    <path d="M 60.769767 395.279723 
L 137.593155 395.149357 
L 175.511856 394.893482 
L 198.91998 394.519963 
L 212.061713 394.145914 
L 225.040942 393.548615 
L 234.672272 392.861876 
L 241.045385 392.254805 
L 247.381065 391.49405 
L 253.679964 390.570423 
L 269.270407 387.948098 
L 275.445443 387.216452 
L 278.52015 387.0249 
L 281.586411 386.968121 
L 287.693868 387.282604 
L 293.768358 387.973684 
L 317.746994 391.140577 
L 326.611667 391.958843 
L 338.32729 392.738896 
L 349.927341 393.286445 
L 364.269979 393.754163 
L 386.868823 394.207109 
L 422.72802 394.590531 
L 468.135783 394.834541 
L 542.151555 395.017581 
L 690.641743 395.15672 
L 728.3 395.175226 
L 728.3 395.175226 
" clip-path="url(#p47b160c592)" style="fill: none; stroke: #e377c2; stroke-width: 1.5; stroke-linecap: square"/>
   </g>
   <g id="line2d_22">
    <path d="M 60.769767 395.28 
L 165.312576 395.175879 
L 188.953285 394.968314 
L 205.511541 394.62509 
L 215.321519 394.258734 
L 225.040942 393.68422 
L 231.471469 393.105768 
L 237.863549 392.308794 
L 244.217863 391.178314 
L 247.381065 390.439333 
L 250.535072 389.548372 
L 253.679964 388.469461 
L 256.81582 387.120321 
L 259.942716 385.55464 
L 263.060729 383.592225 
L 266.169935 381.185803 
L 269.270407 378.237265 
L 272.362219 374.731111 
L 275.445443 370.2938 
L 278.52015 365.138773 
L 281.586411 359.210105 
L 284.644294 352.895262 
L 287.693868 346.306052 
L 290.735201 340.305083 
L 293.768358 335.972037 
L 296.793405 333.480363 
L 299.810407 333.316587 
L 302.819429 335.477972 
L 305.820532 338.612719 
L 308.813779 342.82462 
L 311.799231 347.505861 
L 317.746994 356.093107 
L 320.709423 359.740463 
L 323.664295 362.977376 
L 326.611667 365.941266 
L 329.551597 368.417196 
L 332.484141 370.681376 
L 335.409354 372.563916 
L 341.238004 375.744028 
L 347.037977 378.215667 
L 352.809693 380.167111 
L 358.553561 381.732522 
L 364.269979 383.007406 
L 372.79399 384.498542 
L 378.443471 385.309591 
L 384.066829 385.999879 
L 392.453665 386.875807 
L 400.783705 387.588661 
L 420.00592 388.808131 
L 446.967376 389.952963 
L 465.508537 390.531188 
L 486.380544 391.051277 
L 569.208221 392.418818 
L 628.845318 393.03366 
L 656.625937 393.274501 
L 701.81333 393.607809 
L 728.3 393.774849 
L 728.3 393.774849 
" clip-path="url(#p47b160c592)" style="fill: none; stroke: #7f7f7f; stroke-width: 1.5; stroke-linecap: square"/>
   </g>
   <g id="line2d_23">
    <path d="M 60.769767 395.279999 
L 188.953285 395.174495 
L 218.571264 394.973828 
L 234.672272 394.709158 
L 247.381065 394.315407 
L 256.81582 393.791099 
L 263.060729 393.308015 
L 269.270407 392.610857 
L 272.362219 392.209518 
L 278.52015 391.072657 
L 287.693868 389.040194 
L 290.735201 388.324646 
L 296.793405 387.285819 
L 299.810407 386.981701 
L 305.820532 387.011645 
L 308.813779 387.302316 
L 329.551597 390.726895 
L 335.409354 391.449588 
L 347.037977 392.475842 
L 361.415177 393.237961 
L 372.79399 393.629231 
L 386.868823 393.964224 
L 422.72802 394.416066 
L 457.594825 394.639883 
L 512.016725 394.822802 
L 728.3 395.070248 
L 728.3 395.070248 
" clip-path="url(#p47b160c592)" style="fill: none; stroke: #bcbd22; stroke-width: 1.5; stroke-linecap: square"/>
   </g>
   <g id="line2d_24">
    <path d="M 60.769767 395.278716 
L 101.794418 395.120368 
L 141.101016 394.732356 
L 165.312576 394.294979 
L 182.254714 393.857186 
L 192.286233 393.503256 
L 212.061713 392.5629 
L 228.261055 391.348611 
L 237.863549 390.400238 
L 247.381065 389.176165 
L 253.679964 388.158416 
L 266.169935 385.453429 
L 272.362219 383.770402 
L 278.52015 381.444933 
L 284.644294 378.900743 
L 287.693868 377.333085 
L 293.768358 373.875892 
L 296.793405 371.753857 
L 302.819429 367.092936 
L 311.799231 357.832324 
L 314.776949 354.23502 
L 317.746994 350.85451 
L 323.664295 342.899697 
L 326.611667 339.454691 
L 329.551597 335.673928 
L 335.409354 329.875871 
L 338.32729 327.566623 
L 341.238004 326.666321 
L 344.141548 325.939889 
L 347.037977 326.694254 
L 349.927341 327.570519 
L 355.685083 331.847791 
L 358.553561 334.930452 
L 361.415177 337.700541 
L 364.269979 341.136601 
L 367.118017 344.095654 
L 369.959339 347.479411 
L 372.79399 350.312338 
L 375.622019 353.41638 
L 378.443471 355.966062 
L 381.258393 358.699543 
L 384.066829 360.915381 
L 386.868823 363.268872 
L 395.236598 368.998693 
L 403.547962 373.243509 
L 406.306076 374.564993 
L 414.543969 377.764621 
L 425.444253 380.916605 
L 428.154657 381.628099 
L 441.620544 384.312019 
L 449.632463 385.557486 
L 454.946154 386.319004 
L 478.592328 388.652082 
L 488.966456 389.348611 
L 494.123216 389.745694 
L 504.377292 390.305975 
L 519.61316 390.96592 
L 524.653917 391.175928 
L 539.665502 391.686054 
L 552.051294 392.029738 
L 576.497471 392.590608 
L 602.909195 393.023411 
L 640.484029 393.494438 
L 692.882584 393.945483 
L 728.3 394.175225 
L 728.3 394.175225 
" clip-path="url(#p47b160c592)" style="fill: none; stroke: #17becf; stroke-width: 1.5; stroke-linecap: square"/>
   </g>
   <g id="line2d_25">
    <path d="M 60.769767 395.28 
L 272.362219 395.17756 
L 311.799231 394.923845 
L 335.409354 394.54016 
L 352.809693 394.004209 
L 364.269979 393.434468 
L 375.622019 392.592058 
L 384.066829 391.679734 
L 389.664421 390.909173 
L 395.236598 390.016943 
L 400.783705 388.869492 
L 406.306076 387.466609 
L 414.543969 384.833707 
L 420.00592 382.609964 
L 428.154657 378.665115 
L 438.93873 372.418416 
L 441.620544 370.961312 
L 444.296747 369.33255 
L 446.967376 368.056866 
L 449.632463 366.936005 
L 452.292045 366.00366 
L 457.594825 364.501509 
L 460.23809 364.245905 
L 465.508537 364.118358 
L 468.135783 364.509868 
L 470.757754 365.069704 
L 473.374481 365.485005 
L 481.19351 367.879682 
L 486.380544 369.865255 
L 488.966456 370.629408 
L 491.547337 371.841085 
L 496.694122 373.722185 
L 499.260085 374.415678 
L 504.377292 376.095839 
L 506.928592 376.702005 
L 512.016725 378.15708 
L 514.553612 378.672413 
L 522.135874 380.625161 
L 527.167314 381.536981 
L 529.676091 382.019244 
L 534.679886 382.791207 
L 539.665502 383.594722 
L 544.633137 384.215204 
L 547.110271 384.651541 
L 552.051294 385.177907 
L 559.430063 386.008621 
L 564.327667 386.419405 
L 576.497471 387.484827 
L 586.158423 388.126014 
L 600.528172 389.011952 
L 607.659472 389.335344 
L 621.81754 389.994951 
L 628.845318 390.236588 
L 633.511851 390.460676 
L 640.484029 390.668478 
L 661.205982 391.28053 
L 695.120149 392.135167 
L 728.3 392.781619 
L 728.3 392.781619 
" clip-path="url(#p47b160c592)" style="fill: none; stroke: #1f77b4; stroke-width: 1.5; stroke-linecap: square"/>
   </g>
   <g id="line2d_26">
    <path d="M 60.769767 395.28 
L 225.040942 395.178405 
L 269.270407 394.925621 
L 293.768358 394.603361 
L 314.776949 394.092342 
L 326.611667 393.662495 
L 341.238004 392.885513 
L 352.809693 392.004847 
L 364.269979 390.788692 
L 372.79399 389.559189 
L 378.443471 388.57568 
L 384.066829 387.427749 
L 386.868823 386.819214 
L 395.236598 384.646477 
L 403.547962 381.924153 
L 406.306076 380.985319 
L 411.80404 378.874166 
L 414.543969 377.83384 
L 417.277916 376.636002 
L 420.00592 375.569933 
L 422.72802 374.354522 
L 433.558129 370.328422 
L 436.25127 369.353204 
L 438.93873 368.673457 
L 444.296747 367.462594 
L 446.967376 367.151005 
L 449.632463 366.970358 
L 452.292045 366.918336 
L 457.594825 366.960274 
L 465.508537 367.885114 
L 475.985995 370.086243 
L 478.592328 370.765238 
L 481.19351 371.278774 
L 486.380544 372.677546 
L 488.966456 373.206618 
L 491.547337 374.04898 
L 496.694122 375.362936 
L 499.260085 375.849449 
L 504.377292 377.055777 
L 506.928592 377.496477 
L 512.016725 378.580968 
L 517.085748 379.464248 
L 527.167314 381.233601 
L 529.676091 381.629526 
L 534.679886 382.276599 
L 539.665502 382.960773 
L 544.633137 383.503114 
L 549.582982 384.164228 
L 554.515229 384.616791 
L 561.881007 385.267215 
L 574.071903 386.303679 
L 583.749341 386.943465 
L 600.528172 387.960906 
L 607.659472 388.279746 
L 624.163887 388.979028 
L 645.113934 389.746779 
L 649.729428 389.893983 
L 672.595326 390.49751 
L 717.318717 391.50942 
L 728.3 391.686774 
L 728.3 391.686774 
" clip-path="url(#p47b160c592)" style="fill: none; stroke: #ff7f0e; stroke-width: 1.5; stroke-linecap: square"/>
   </g>
   <g id="line2d_27">
    <path d="M 60.769767 395.28 
L 534.679886 395.169111 
L 566.770064 394.94731 
L 583.749341 394.652617 
L 600.528172 394.149803 
L 614.755758 393.684795 
L 624.163887 393.551984 
L 635.839576 393.671767 
L 686.150176 394.608047 
L 721.72051 394.865657 
L 728.3 394.894372 
L 728.3 394.894372 
" clip-path="url(#p47b160c592)" style="fill: none; stroke: #2ca02c; stroke-width: 1.5; stroke-linecap: square"/>
   </g>
   <g id="line2d_28">
    <path d="M 60.769767 395.279994 
L 158.455039 395.173484 
L 225.040942 394.884676 
L 302.819429 394.218177 
L 344.141548 393.679365 
L 375.622019 393.202839 
L 483.789572 390.908369 
L 512.016725 390.185814 
L 519.61316 389.959939 
L 524.653917 389.835086 
L 549.582982 389.146509 
L 556.974811 388.897821 
L 578.918886 388.228668 
L 586.158423 387.961124 
L 621.81754 386.80365 
L 626.506473 386.586236 
L 661.205982 385.348358 
L 697.354452 384.140904 
L 701.81333 384.065088 
L 728.3 383.17188 
L 728.3 383.17188 
" clip-path="url(#p47b160c592)" style="fill: none; stroke: #d62728; stroke-width: 1.5; stroke-linecap: square"/>
   </g>
   <g id="patch_3">
    <path d="M 58.7 395.28 
L 58.7 7.2 
" style="fill: none; stroke: #808080; stroke-width: 0.8; stroke-linejoin: miter; stroke-linecap: square"/>
   </g>
   <g id="patch_4">
    <path d="M 728.3 395.28 
L 728.3 7.2 
" style="fill: none; stroke: #808080; stroke-width: 0.8; stroke-linejoin: miter; stroke-linecap: square"/>
   </g>
   <g id="patch_5">
    <path d="M 58.7 395.28 
L 728.3 395.28 
" style="fill: none; stroke: #808080; stroke-width: 0.8; stroke-linejoin: miter; stroke-linecap: square"/>
   </g>
   <g id="patch_6">
    <path d="M 58.7 7.2 
L 728.3 7.2 
" style="fill: none; stroke: #808080; stroke-width: 0.8; stroke-linejoin: miter; stroke-linecap: square"/>
   </g>
   <g id="legend_1">
    <g id="patch_7">
     <path d="M 374.29166 131.6502 
L 717.8042 131.6502 
Q 720.803 131.6502 720.803 128.6514 
L 720.803 17.6958 
Q 720.803 14.697 717.8042 14.697 
L 374.29166 14.697 
Q 371.29286 14.697 371.29286 17.6958 
L 371.29286 128.6514 
Q 371.29286 131.6502 374.29166 131.6502 
L 374.29166 131.6502 
z
" style="fill: none; opacity: 0.8; stroke: #cccccc; stroke-linejoin: miter"/>
    </g>
    <g id="line2d_29">
     <path d="M 377.29046 26.6922 
L 392.28446 26.6922 
L 407.27846 26.6922 
" style="fill: none; stroke: #202020; stroke-width: 3; stroke-linecap: square"/>
    </g>
    <g id="text_16">
     <!-- Total -->
     <g style="fill: #808080" transform="translate(419.27366 31.9401) scale(0.14994 -0.14994)">
      <defs>
       <path id="STIXGeneral-Regular-37" d="M 3795 3149 
L 3642 3149 
Q 3539 3674 3353 3821 
Q 3168 3968 2656 3968 
L 2278 3968 
L 2278 710 
Q 2278 346 2387 243 
Q 2496 141 2893 122 
L 2893 0 
L 1024 0 
L 1024 122 
Q 1427 147 1526 256 
Q 1626 365 1626 787 
L 1626 3968 
L 1242 3968 
Q 723 3968 540 3817 
Q 358 3667 262 3149 
L 109 3149 
L 154 4237 
L 3750 4237 
L 3795 3149 
z
" transform="scale(0.015625)"/>
      </defs>
      <use xlink:href="#STIXGeneral-Regular-37"/>
      <use xlink:href="#STIXGeneral-Regular-52" transform="translate(57.890625 0)"/>
      <use xlink:href="#STIXGeneral-Regular-57" transform="translate(107.09375 0)"/>
      <use xlink:href="#STIXGeneral-Regular-44" transform="translate(135.890625 0)"/>
      <use xlink:href="#STIXGeneral-Regular-4f" transform="translate(180.296875 0)"/>
     </g>
    </g>
    <g id="line2d_30">
     <path d="M 377.29046 49.1832 
L 392.28446 49.1832 
L 407.27846 49.1832 
" style="fill: none; stroke: #1f77b4; stroke-width: 1.5; stroke-linecap: square"/>
    </g>
    <g id="text_17">
     <!-- $\Lambda(1405)$ -->
     <g style="fill: #808080" transform="translate(419.27366 54.4311) scale(0.14994 -0.14994)">
      <defs>
       <path id="STIXGeneral-Regular-25b" d="M 4397 0 
L 2765 0 
L 2765 122 
Q 2790 122 2841 125 
Q 2893 128 2918 128 
Q 2944 128 2985 131 
Q 3027 134 3049 140 
Q 3072 147 3101 156 
Q 3130 166 3146 182 
Q 3162 198 3178 220 
Q 3194 243 3200 268 
Q 3206 294 3206 333 
Q 3206 474 3085 781 
L 2061 3411 
L 2048 3411 
L 979 653 
Q 922 506 922 384 
Q 922 237 1027 179 
Q 1133 122 1370 122 
L 1370 0 
L 96 0 
L 96 122 
Q 371 147 499 323 
Q 627 499 902 1190 
L 2157 4314 
L 2285 4314 
L 3795 710 
Q 3930 384 4042 265 
Q 4154 147 4397 122 
L 4397 0 
z
" transform="scale(0.015625)"/>
      </defs>
      <use xlink:href="#STIXGeneral-Regular-25b" transform="translate(0 0.203125)"/>
      <use xlink:href="#STIXGeneral-Regular-b" transform="translate(70.199936 0.203125)"/>
      <use xlink:href="#STIXGeneral-Regular-14" transform="translate(103.499908 0.203125)"/>
      <use xlink:href="#STIXGeneral-Regular-17" transform="translate(153.499863 0.203125)"/>
      <use xlink:href="#STIXGeneral-Regular-13" transform="translate(203.499817 0.203125)"/>
      <use xlink:href="#STIXGeneral-Regular-18" transform="translate(253.499771 0.203125)"/>
      <use xlink:href="#STIXGeneral-Regular-c" transform="translate(303.499725 0.203125)"/>
     </g>
    </g>
    <g id="line2d_31">
     <path d="M 377.29046 71.6742 
L 392.28446 71.6742 
L 407.27846 71.6742 
" style="fill: none; stroke: #ff7f0e; stroke-width: 1.5; stroke-linecap: square"/>
    </g>
    <g id="text_18">
     <!-- $\Lambda(1520)$ -->
     <g style="fill: #808080" transform="translate(419.27366 76.9221) scale(0.14994 -0.14994)">
      <use xlink:href="#STIXGeneral-Regular-25b" transform="translate(0 0.203125)"/>
      <use xlink:href="#STIXGeneral-Regular-b" transform="translate(70.199936 0.203125)"/>
      <use xlink:href="#STIXGeneral-Regular-14" transform="translate(103.499908 0.203125)"/>
      <use xlink:href="#STIXGeneral-Regular-18" transform="translate(153.499863 0.203125)"/>
      <use xlink:href="#STIXGeneral-Regular-15" transform="translate(203.499817 0.203125)"/>
      <use xlink:href="#STIXGeneral-Regular-13" transform="translate(253.499771 0.203125)"/>
      <use xlink:href="#STIXGeneral-Regular-c" transform="translate(303.499725 0.203125)"/>
     </g>
    </g>
    <g id="line2d_32">
     <path d="M 377.29046 94.1652 
L 392.28446 94.1652 
L 407.27846 94.1652 
" style="fill: none; stroke: #2ca02c; stroke-width: 1.5; stroke-linecap: square"/>
    </g>
    <g id="text_19">
     <!-- $\Lambda(1600)$ -->
     <g style="fill: #808080" transform="translate(419.27366 99.4131) scale(0.14994 -0.14994)">
      <use xlink:href="#STIXGeneral-Regular-25b" transform="translate(0 0.59375)"/>
      <use xlink:href="#STIXGeneral-Regular-b" transform="translate(70.199936 0.59375)"/>
      <use xlink:href="#STIXGeneral-Regular-14" transform="translate(103.499908 0.59375)"/>
      <use xlink:href="#STIXGeneral-Regular-19" transform="translate(153.499863 0.59375)"/>
      <use xlink:href="#STIXGeneral-Regular-13" transform="translate(203.499817 0.59375)"/>
      <use xlink:href="#STIXGeneral-Regular-13" transform="translate(253.499771 0.59375)"/>
      <use xlink:href="#STIXGeneral-Regular-c" transform="translate(303.499725 0.59375)"/>
     </g>
    </g>
    <g id="line2d_33">
     <path d="M 377.29046 116.6562 
L 392.28446 116.6562 
L 407.27846 116.6562 
" style="fill: none; stroke: #d62728; stroke-width: 1.5; stroke-linecap: square"/>
    </g>
    <g id="text_20">
     <!-- $\Lambda(1670)$ -->
     <g style="fill: #808080" transform="translate(419.27366 121.9041) scale(0.14994 -0.14994)">
      <defs>
       <path id="STIXGeneral-Regular-1a" d="M 2874 4134 
L 1517 -51 
L 1101 -51 
L 2368 3763 
L 992 3763 
Q 717 3763 582 3667 
Q 448 3571 243 3238 
L 128 3296 
L 512 4237 
L 2874 4237 
L 2874 4134 
z
" transform="scale(0.015625)"/>
      </defs>
      <use xlink:href="#STIXGeneral-Regular-25b" transform="translate(0 0.59375)"/>
      <use xlink:href="#STIXGeneral-Regular-b" transform="translate(70.199936 0.59375)"/>
      <use xlink:href="#STIXGeneral-Regular-14" transform="translate(103.499908 0.59375)"/>
      <use xlink:href="#STIXGeneral-Regular-19" transform="translate(153.499863 0.59375)"/>
      <use xlink:href="#STIXGeneral-Regular-1a" transform="translate(203.499817 0.59375)"/>
      <use xlink:href="#STIXGeneral-Regular-13" transform="translate(253.499771 0.59375)"/>
      <use xlink:href="#STIXGeneral-Regular-c" transform="translate(303.499725 0.59375)"/>
     </g>
    </g>
    <g id="line2d_34">
     <path d="M 499.79144 26.6922 
L 514.78544 26.6922 
L 529.77944 26.6922 
" style="fill: none; stroke: #9467bd; stroke-width: 1.5; stroke-linecap: square"/>
    </g>
    <g id="text_21">
     <!-- $\Lambda(1690)$ -->
     <g style="fill: #808080" transform="translate(541.77464 31.9401) scale(0.14994 -0.14994)">
      <defs>
       <path id="STIXGeneral-Regular-1c" d="M 378 -141 
L 358 -13 
Q 1094 115 1603 608 
Q 2112 1101 2304 1882 
Q 1933 1517 1344 1517 
Q 826 1517 509 1875 
Q 192 2234 192 2816 
Q 192 3462 573 3894 
Q 954 4326 1523 4326 
Q 2131 4326 2528 3840 
Q 2938 3328 2938 2522 
Q 2938 1958 2742 1462 
Q 2547 966 2170 621 
Q 1773 262 1395 105 
Q 1018 -51 378 -141 
z
M 2317 2272 
L 2317 2522 
Q 2317 4147 1472 4147 
Q 1171 4147 1005 3930 
Q 909 3802 845 3546 
Q 781 3290 781 3034 
Q 781 2464 995 2128 
Q 1210 1792 1568 1792 
Q 1824 1792 2070 1917 
Q 2317 2042 2317 2272 
z
" transform="scale(0.015625)"/>
      </defs>
      <use xlink:href="#STIXGeneral-Regular-25b" transform="translate(0 0.59375)"/>
      <use xlink:href="#STIXGeneral-Regular-b" transform="translate(70.199936 0.59375)"/>
      <use xlink:href="#STIXGeneral-Regular-14" transform="translate(103.499908 0.59375)"/>
      <use xlink:href="#STIXGeneral-Regular-19" transform="translate(153.499863 0.59375)"/>
      <use xlink:href="#STIXGeneral-Regular-1c" transform="translate(203.499817 0.59375)"/>
      <use xlink:href="#STIXGeneral-Regular-13" transform="translate(253.499771 0.59375)"/>
      <use xlink:href="#STIXGeneral-Regular-c" transform="translate(303.499725 0.59375)"/>
     </g>
    </g>
    <g id="line2d_35">
     <path d="M 499.79144 49.1832 
L 514.78544 49.1832 
L 529.77944 49.1832 
" style="fill: none; stroke: #8c564b; stroke-width: 1.5; stroke-linecap: square"/>
    </g>
    <g id="text_22">
     <!-- $\Lambda(1800)$ -->
     <g style="fill: #808080" transform="translate(541.77464 54.4311) scale(0.14994 -0.14994)">
      <use xlink:href="#STIXGeneral-Regular-25b" transform="translate(0 0.40625)"/>
      <use xlink:href="#STIXGeneral-Regular-b" transform="translate(70.199936 0.40625)"/>
      <use xlink:href="#STIXGeneral-Regular-14" transform="translate(103.499908 0.40625)"/>
      <use xlink:href="#STIXGeneral-Regular-1b" transform="translate(153.499863 0.40625)"/>
      <use xlink:href="#STIXGeneral-Regular-13" transform="translate(203.499817 0.40625)"/>
      <use xlink:href="#STIXGeneral-Regular-13" transform="translate(253.499771 0.40625)"/>
      <use xlink:href="#STIXGeneral-Regular-c" transform="translate(303.499725 0.40625)"/>
     </g>
    </g>
    <g id="line2d_36">
     <path d="M 499.79144 71.6742 
L 514.78544 71.6742 
L 529.77944 71.6742 
" style="fill: none; stroke: #e377c2; stroke-width: 1.5; stroke-linecap: square"/>
    </g>
    <g id="text_23">
     <!-- $\Lambda(1810)$ -->
     <g style="fill: #808080" transform="translate(541.77464 76.9221) scale(0.14994 -0.14994)">
      <use xlink:href="#STIXGeneral-Regular-25b" transform="translate(0 0.40625)"/>
      <use xlink:href="#STIXGeneral-Regular-b" transform="translate(70.199936 0.40625)"/>
      <use xlink:href="#STIXGeneral-Regular-14" transform="translate(103.499908 0.40625)"/>
      <use xlink:href="#STIXGeneral-Regular-1b" transform="translate(153.499863 0.40625)"/>
      <use xlink:href="#STIXGeneral-Regular-14" transform="translate(203.499817 0.40625)"/>
      <use xlink:href="#STIXGeneral-Regular-13" transform="translate(253.499771 0.40625)"/>
      <use xlink:href="#STIXGeneral-Regular-c" transform="translate(303.499725 0.40625)"/>
     </g>
    </g>
    <g id="line2d_37">
     <path d="M 499.79144 94.1652 
L 514.78544 94.1652 
L 529.77944 94.1652 
" style="fill: none; stroke: #7f7f7f; stroke-width: 1.5; stroke-linecap: square"/>
    </g>
    <g id="text_24">
     <!-- $\Lambda(1820)$ -->
     <g style="fill: #808080" transform="translate(541.77464 99.4131) scale(0.14994 -0.14994)">
      <use xlink:href="#STIXGeneral-Regular-25b" transform="translate(0 0.40625)"/>
      <use xlink:href="#STIXGeneral-Regular-b" transform="translate(70.199936 0.40625)"/>
      <use xlink:href="#STIXGeneral-Regular-14" transform="translate(103.499908 0.40625)"/>
      <use xlink:href="#STIXGeneral-Regular-1b" transform="translate(153.499863 0.40625)"/>
      <use xlink:href="#STIXGeneral-Regular-15" transform="translate(203.499817 0.40625)"/>
      <use xlink:href="#STIXGeneral-Regular-13" transform="translate(253.499771 0.40625)"/>
      <use xlink:href="#STIXGeneral-Regular-c" transform="translate(303.499725 0.40625)"/>
     </g>
    </g>
    <g id="line2d_38">
     <path d="M 499.79144 116.6562 
L 514.78544 116.6562 
L 529.77944 116.6562 
" style="fill: none; stroke: #bcbd22; stroke-width: 1.5; stroke-linecap: square"/>
    </g>
    <g id="text_25">
     <!-- $\Lambda(1830)$ -->
     <g style="fill: #808080" transform="translate(541.77464 121.9041) scale(0.14994 -0.14994)">
      <use xlink:href="#STIXGeneral-Regular-25b" transform="translate(0 0.40625)"/>
      <use xlink:href="#STIXGeneral-Regular-b" transform="translate(70.199936 0.40625)"/>
      <use xlink:href="#STIXGeneral-Regular-14" transform="translate(103.499908 0.40625)"/>
      <use xlink:href="#STIXGeneral-Regular-1b" transform="translate(153.499863 0.40625)"/>
      <use xlink:href="#STIXGeneral-Regular-16" transform="translate(203.499817 0.40625)"/>
      <use xlink:href="#STIXGeneral-Regular-13" transform="translate(253.499771 0.40625)"/>
      <use xlink:href="#STIXGeneral-Regular-c" transform="translate(303.499725 0.40625)"/>
     </g>
    </g>
    <g id="line2d_39">
     <path d="M 622.29242 26.6922 
L 637.28642 26.6922 
L 652.28042 26.6922 
" style="fill: none; stroke: #17becf; stroke-width: 1.5; stroke-linecap: square"/>
    </g>
    <g id="text_26">
     <!-- $\Lambda(1890)$ -->
     <g style="fill: #808080" transform="translate(664.27562 31.9401) scale(0.14994 -0.14994)">
      <use xlink:href="#STIXGeneral-Regular-25b" transform="translate(0 0.40625)"/>
      <use xlink:href="#STIXGeneral-Regular-b" transform="translate(70.199936 0.40625)"/>
      <use xlink:href="#STIXGeneral-Regular-14" transform="translate(103.499908 0.40625)"/>
      <use xlink:href="#STIXGeneral-Regular-1b" transform="translate(153.499863 0.40625)"/>
      <use xlink:href="#STIXGeneral-Regular-1c" transform="translate(203.499817 0.40625)"/>
      <use xlink:href="#STIXGeneral-Regular-13" transform="translate(253.499771 0.40625)"/>
      <use xlink:href="#STIXGeneral-Regular-c" transform="translate(303.499725 0.40625)"/>
     </g>
    </g>
    <g id="line2d_40">
     <path d="M 622.29242 49.1832 
L 637.28642 49.1832 
L 652.28042 49.1832 
" style="fill: none; stroke: #1f77b4; stroke-width: 1.5; stroke-linecap: square"/>
    </g>
    <g id="text_27">
     <!-- $\Lambda(2100)$ -->
     <g style="fill: #808080" transform="translate(664.27562 54.4311) scale(0.14994 -0.14994)">
      <use xlink:href="#STIXGeneral-Regular-25b" transform="translate(0 0.40625)"/>
      <use xlink:href="#STIXGeneral-Regular-b" transform="translate(70.199936 0.40625)"/>
      <use xlink:href="#STIXGeneral-Regular-15" transform="translate(103.499908 0.40625)"/>
      <use xlink:href="#STIXGeneral-Regular-14" transform="translate(153.499863 0.40625)"/>
      <use xlink:href="#STIXGeneral-Regular-13" transform="translate(203.499817 0.40625)"/>
      <use xlink:href="#STIXGeneral-Regular-13" transform="translate(253.499771 0.40625)"/>
      <use xlink:href="#STIXGeneral-Regular-c" transform="translate(303.499725 0.40625)"/>
     </g>
    </g>
    <g id="line2d_41">
     <path d="M 622.29242 71.6742 
L 637.28642 71.6742 
L 652.28042 71.6742 
" style="fill: none; stroke: #ff7f0e; stroke-width: 1.5; stroke-linecap: square"/>
    </g>
    <g id="text_28">
     <!-- $\Lambda(2110)$ -->
     <g style="fill: #808080" transform="translate(664.27562 76.9221) scale(0.14994 -0.14994)">
      <use xlink:href="#STIXGeneral-Regular-25b" transform="translate(0 0.40625)"/>
      <use xlink:href="#STIXGeneral-Regular-b" transform="translate(70.199936 0.40625)"/>
      <use xlink:href="#STIXGeneral-Regular-15" transform="translate(103.499908 0.40625)"/>
      <use xlink:href="#STIXGeneral-Regular-14" transform="translate(153.499863 0.40625)"/>
      <use xlink:href="#STIXGeneral-Regular-14" transform="translate(203.499817 0.40625)"/>
      <use xlink:href="#STIXGeneral-Regular-13" transform="translate(253.499771 0.40625)"/>
      <use xlink:href="#STIXGeneral-Regular-c" transform="translate(303.499725 0.40625)"/>
     </g>
    </g>
    <g id="line2d_42">
     <path d="M 622.29242 94.1652 
L 637.28642 94.1652 
L 652.28042 94.1652 
" style="fill: none; stroke: #2ca02c; stroke-width: 1.5; stroke-linecap: square"/>
    </g>
    <g id="text_29">
     <!-- $\Lambda(2350)$ -->
     <g style="fill: #808080" transform="translate(664.27562 99.4131) scale(0.14994 -0.14994)">
      <use xlink:href="#STIXGeneral-Regular-25b" transform="translate(0 0.203125)"/>
      <use xlink:href="#STIXGeneral-Regular-b" transform="translate(70.199936 0.203125)"/>
      <use xlink:href="#STIXGeneral-Regular-15" transform="translate(103.499908 0.203125)"/>
      <use xlink:href="#STIXGeneral-Regular-16" transform="translate(153.499863 0.203125)"/>
      <use xlink:href="#STIXGeneral-Regular-18" transform="translate(203.499817 0.203125)"/>
      <use xlink:href="#STIXGeneral-Regular-13" transform="translate(253.499771 0.203125)"/>
      <use xlink:href="#STIXGeneral-Regular-c" transform="translate(303.499725 0.203125)"/>
     </g>
    </g>
    <g id="line2d_43">
     <path d="M 622.29242 116.6562 
L 637.28642 116.6562 
L 652.28042 116.6562 
" style="fill: none; stroke: #d62728; stroke-width: 1.5; stroke-linecap: square"/>
    </g>
    <g id="text_30">
     <!-- $\Lambda_\mathrm{NR}$ -->
     <g style="fill: #808080" transform="translate(664.27562 121.9041) scale(0.14994 -0.14994)">
      <defs>
       <path id="STIXGeneral-Regular-35" d="M 4224 0 
L 3187 0 
L 1664 1971 
L 1306 1958 
L 1306 717 
Q 1306 352 1405 249 
Q 1504 147 1875 122 
L 1875 0 
L 109 0 
L 109 122 
Q 474 154 563 262 
Q 653 371 653 794 
L 653 3526 
Q 653 3885 563 3987 
Q 474 4090 109 4115 
L 109 4237 
L 1850 4237 
Q 2726 4237 3187 3859 
Q 3501 3603 3501 3091 
Q 3501 2221 2342 2042 
L 3622 422 
Q 3757 256 3878 198 
Q 4000 141 4224 122 
L 4224 0 
z
M 1306 3731 
L 1306 2195 
Q 1766 2202 1990 2246 
Q 2214 2291 2438 2413 
Q 2803 2618 2803 3142 
Q 2803 4000 1632 4000 
Q 1459 4000 1382 3945 
Q 1306 3891 1306 3731 
z
" transform="scale(0.015625)"/>
      </defs>
      <use xlink:href="#STIXGeneral-Regular-25b" transform="translate(0 0.59375)"/>
      <use xlink:href="#STIXGeneral-Regular-31" transform="translate(71.774936 -14.40625) scale(0.7)"/>
      <use xlink:href="#STIXGeneral-Regular-35" transform="translate(122.314891 -14.40625) scale(0.7)"/>
     </g>
    </g>
   </g>
  </g>
 </g>
 <defs>
  <clipPath id="p47b160c592">
   <rect x="58.7" y="7.2" width="669.6" height="388.08"/>
  </clipPath>
 </defs>
</svg>
